<?xml version="1.0" encoding="utf-8"?>
<!-- Generator: Adobe Illustrator 17.0.0, SVG Export Plug-In . SVG Version: 6.00 Build 0)  -->
<!DOCTYPE svg PUBLIC "-//W3C//DTD SVG 1.1//EN" "http://www.w3.org/Graphics/SVG/1.1/DTD/svg11.dtd">
<svg version="1.1" id="Layer_1" xmlns="http://www.w3.org/2000/svg" xmlns:xlink="http://www.w3.org/1999/xlink" x="0px" y="0px"
	 width="430.96px" height="295.023px" viewBox="0 0 430.96 295.023" enable-background="new 0 0 430.96 295.023"
	 xml:space="preserve">
<path fill="#FB503B" d="M429.307,137.828c-2.853-3.209-42.302-52.591-49.254-60.97c-6.952-8.379-10.34-6.864-14.619-6.24
	c-4.279,0.624-54.195,9.003-59.989,9.983c-5.794,0.98-9.448,3.298-5.883,8.29c3.171,4.439,35.986,50.961,43.214,61.207
	l-130.461,31.253L108.56,7.889c-4.13-6.124-4.988-8.264-14.388-7.836C84.772,0.48,12.78,6.461,7.653,6.889
	C2.525,7.317-3.103,9.599,2.024,21.705c5.127,12.106,86.886,188.29,89.165,193.417c2.279,5.127,8.204,13.444,22.076,10.111
	c14.213-3.415,63.503-16.279,90.434-23.333c14.231,25.771,43.254,78.045,48.621,85.535c7.166,10,12.099,8.346,23.1,5.013
	c8.589-2.602,134.4-47.846,140.067-50.179c5.667-2.333,9.167-4,5.333-9.667c-2.818-4.166-36.008-48.629-53.392-71.89
	c11.906-3.169,54.244-14.44,58.758-15.664C431.446,143.622,432.16,141.037,429.307,137.828z M192.135,186.32
	c-1.56,0.334-74.63,17.822-78.529,18.714c-3.899,0.892-3.898,0.445-4.344-0.892c-0.446-1.337-86.878-179.559-88.079-181.787
	c-1.201-2.228-1.137-3.994,0-3.994c1.137,0,69.008-6.066,71.41-6.193s2.149,0.379,3.033,1.896c0,0,95.73,165.239,97.4,168.134
	C194.697,185.094,193.694,185.986,192.135,186.32z M398.155,224.935c1.166,1.834,2.332,3.001-1.334,4.334
	c-3.666,1.333-123.667,41.833-126,42.833c-2.333,1-4.166,1.333-7.166-3s-42.042-71.9-42.042-71.9l127.208-33.1
	c3.167-1,4.167-1.667,6.167,1.5C356.988,168.769,396.989,223.101,398.155,224.935z M406.31,134.619
	c-2.853,0.624-49.561,12.212-49.561,12.212l-38.201-52.414c-1.07-1.515-1.961-3.031,0.713-3.387
	c2.674-0.356,46.084-8.201,48.045-8.646c1.961-0.445,3.655-0.98,6.061,2.318c2.406,3.298,35.438,45.104,36.685,46.708
	C411.301,133.014,409.163,133.995,406.31,134.619z"/>
</svg>
